<svg width="16" height="16" viewBox="0 0 16 16" fill="none" xmlns="http://www.w3.org/2000/svg">
  <g id="archive" clip-path="url(#clip0_9983_1705)">
    <g id="Vector">
      <path
        d="M15.1111 0.666992H0.888889C0.397969 0.666992 0 1.05326 0 1.52974V3.25523C0 3.73171 0.397969 4.11797 0.888889 4.11797H15.1111C15.602 4.11797 16 3.73171 16 3.25523V1.52974C16 1.05326 15.602 0.666992 15.1111 0.666992Z"
        fill="#9CA3AF" />
      <path
        d="M0.888889 5.84346V13.6082C0.888889 14.0658 1.07619 14.5047 1.40959 14.8283C1.74299 15.1519 2.19517 15.3337 2.66667 15.3337H13.3333C13.8048 15.3337 14.257 15.1519 14.5904 14.8283C14.9238 14.5047 15.1111 14.0658 15.1111 13.6082V5.84346H0.888889ZM10.6667 8.4317C10.6667 8.66051 10.573 8.87995 10.4063 9.04175C10.2396 9.20355 10.0135 9.29444 9.77778 9.29444H6.22222C5.98647 9.29444 5.76038 9.20355 5.59368 9.04175C5.42698 8.87995 5.33333 8.66051 5.33333 8.4317V7.56895C5.33333 7.34014 5.42698 7.1207 5.59368 6.9589C5.76038 6.7971 5.98647 6.70621 6.22222 6.70621C6.45797 6.70621 6.68406 6.7971 6.85076 6.9589C7.01746 7.1207 7.11111 7.34014 7.11111 7.56895H8.88889C8.88889 7.34014 8.98254 7.1207 9.14924 6.9589C9.31594 6.7971 9.54203 6.70621 9.77778 6.70621C10.0135 6.70621 10.2396 6.7971 10.4063 6.9589C10.573 7.1207 10.6667 7.34014 10.6667 7.56895V8.4317Z"
        fill="#9CA3AF" />
    </g>
  </g>
  <defs>
    <clipPath id="clip0_9983_1705">
      <rect width="16" height="16" fill="white" />
    </clipPath>
  </defs>
</svg>
