<svg width="16" height="16" viewBox="0 0 16 16" fill="none" xmlns="http://www.w3.org/2000/svg">
  <g id="bag" clip-path="url(#clip0_9977_1667)">
    <path id="Vector"
      d="M14.5771 4.7384C14.5611 4.53708 14.4675 4.34908 14.315 4.21213C14.1625 4.07518 13.9625 3.9994 13.755 4H11.2886V3.2C11.2886 2.35131 10.9421 1.53737 10.3254 0.937258C9.70867 0.337142 8.87222 0 8.00005 0C7.12788 0 6.29143 0.337142 5.67471 0.937258C5.05799 1.53737 4.71152 2.35131 4.71152 3.2V4H2.24513C2.03762 3.9994 1.83756 4.07518 1.68508 4.21213C1.5326 4.34908 1.43897 4.53708 1.423 4.7384L0.671569 14.2768C0.654121 14.4966 0.683557 14.7176 0.758029 14.9259C0.8325 15.1341 0.950401 15.3251 1.10433 15.4869C1.25826 15.6487 1.4449 15.7778 1.65253 15.8661C1.86016 15.9544 2.08431 16 2.3109 16H13.6892C13.9157 16 14.1398 15.9544 14.3474 15.8662C14.5549 15.7779 14.7415 15.6489 14.8955 15.4872C15.0494 15.3255 15.1673 15.1346 15.2418 14.9264C15.3163 14.7183 15.3459 14.4974 15.3285 14.2776L14.5771 4.7384ZM6.35579 7.2C6.35579 7.41217 6.26917 7.61566 6.11499 7.76569C5.96081 7.91571 5.7517 8 5.53366 8C5.31561 8 5.1065 7.91571 4.95232 7.76569C4.79814 7.61566 4.71152 7.41217 4.71152 7.2V5.6H6.35579V7.2ZM6.35579 3.2C6.35579 2.77565 6.52902 2.36869 6.83738 2.06863C7.14574 1.76857 7.56397 1.6 8.00005 1.6C8.43614 1.6 8.85436 1.76857 9.16272 2.06863C9.47108 2.36869 9.64432 2.77565 9.64432 3.2V4H6.35579V3.2ZM11.2886 7.2C11.2886 7.41217 11.202 7.61566 11.0478 7.76569C10.8936 7.91571 10.6845 8 10.4664 8C10.2484 8 10.0393 7.91571 9.88511 7.76569C9.73093 7.61566 9.64432 7.41217 9.64432 7.2V5.6H11.2886V7.2Z"
      fill="#9CA3AF" />
  </g>
  <defs>
    <clipPath id="clip0_9977_1667">
      <rect width="16" height="16" fill="white" />
    </clipPath>
  </defs>
</svg>
