<svg width="12" height="13" viewBox="0 0 12 13" fill="none" xmlns="http://www.w3.org/2000/svg">
  <g id="chevron-right">
    <path id="Vector"
      d="M4.01026 11.8996C3.8129 11.8996 3.61999 11.8363 3.45591 11.7177C3.29183 11.5992 3.16395 11.4308 3.08843 11.2337C3.01291 11.0366 2.99315 10.8198 3.03164 10.6106C3.07013 10.4013 3.16515 10.2092 3.30468 10.0583L6.59106 6.50624L3.30468 2.95416C3.20936 2.85466 3.13333 2.73563 3.08102 2.60403C3.02872 2.47243 3.00119 2.33088 3.00004 2.18766C2.99889 2.04443 3.02414 1.90239 3.07432 1.76983C3.1245 1.63726 3.1986 1.51683 3.29231 1.41555C3.38601 1.31427 3.49744 1.23417 3.62009 1.17993C3.74274 1.1257 3.87415 1.09841 4.00666 1.09965C4.13918 1.10089 4.27013 1.13065 4.39189 1.18718C4.51365 1.24372 4.62377 1.32589 4.71584 1.42892L8.7078 5.74361C8.8949 5.9459 9 6.22021 9 6.50624C9 6.79226 8.8949 7.06658 8.7078 7.26886L4.71584 11.5836C4.52872 11.7859 4.27492 11.8995 4.01026 11.8996Z"
      fill="#9CA3AF" />
  </g>
</svg>
