<svg width="12" height="12" viewBox="0 0 12 12" fill="none" xmlns="http://www.w3.org/2000/svg">
  <g id="chevron-sort">
    <g id="Vector">
      <path
        d="M9.20114 4.4999C8.98924 4.49986 8.78603 4.42081 8.63622 4.28015L6.00499 1.81036L3.37377 4.28015C3.30006 4.35178 3.21189 4.40892 3.11441 4.44823C3.01692 4.48753 2.91207 4.50822 2.80598 4.50909C2.69988 4.50995 2.59467 4.49098 2.49647 4.45327C2.39827 4.41555 2.30906 4.35986 2.23403 4.28944C2.15901 4.21902 2.09968 4.13528 2.0595 4.04311C2.01933 3.95094 1.99911 3.85217 2.00003 3.75259C2.00095 3.653 2.02299 3.55459 2.06487 3.46308C2.10675 3.37158 2.16762 3.28882 2.24394 3.21963L5.44008 0.219593C5.58992 0.0789877 5.79312 0 6.00499 0C6.21687 0 6.42007 0.0789877 6.56991 0.219593L9.76605 3.21963C9.87777 3.32452 9.95384 3.45815 9.98466 3.60361C10.0155 3.74908 9.99965 3.89986 9.93919 4.03688C9.87872 4.17391 9.77633 4.29104 9.64497 4.37345C9.5136 4.45586 9.35914 4.49987 9.20114 4.4999Z"
        fill="#111928" />
      <path
        d="M6.00499 12C5.79309 12 5.58989 11.9209 5.44008 11.7802L2.24394 8.78021C2.16762 8.71102 2.10675 8.62826 2.06487 8.53676C2.02299 8.44525 2.00095 8.34684 2.00003 8.24725C1.99911 8.14767 2.01933 8.0489 2.0595 7.95673C2.09968 7.86456 2.15901 7.78082 2.23403 7.7104C2.30906 7.63998 2.39827 7.58429 2.49647 7.54657C2.59467 7.50886 2.69988 7.48989 2.80598 7.49075C2.91207 7.49162 3.01692 7.51231 3.11441 7.55161C3.21189 7.59092 3.30006 7.64806 3.37377 7.71969L6.00499 10.1895L8.63622 7.71969C8.78692 7.58307 8.98876 7.50748 9.19826 7.50918C9.40776 7.51089 9.60817 7.58977 9.75632 7.72883C9.90447 7.86789 9.9885 8.056 9.99032 8.25265C9.99214 8.4493 9.9116 8.63875 9.76605 8.78021L6.56991 11.7802C6.4201 11.9209 6.21689 12 6.00499 12Z"
        fill="#111928" />
    </g>
  </g>
</svg>
