<svg width="16" height="16" viewBox="0 0 16 16" fill="none" xmlns="http://www.w3.org/2000/svg">
  <g id="clipboard">
    <path id="Vector"
      d="M13.098 1.6H10.7451C10.7451 1.17565 10.5798 0.768687 10.2856 0.468629C9.99146 0.168571 9.59248 0 9.17645 0H6.82351C6.40748 0 6.0085 0.168571 5.71432 0.468629C5.42015 0.768687 5.25488 1.17565 5.25488 1.6H2.90194C2.48591 1.6 2.08693 1.76857 1.79275 2.06863C1.49858 2.36869 1.33331 2.77565 1.33331 3.2V14.4C1.33331 14.8243 1.49858 15.2313 1.79275 15.5314C2.08693 15.8314 2.48591 16 2.90194 16H13.098C13.514 16 13.913 15.8314 14.2072 15.5314C14.5014 15.2313 14.6666 14.8243 14.6666 14.4V3.2C14.6666 2.77565 14.5014 2.36869 14.2072 2.06863C13.913 1.76857 13.514 1.6 13.098 1.6ZM9.17645 1.6V4H6.82351V1.6H9.17645ZM10.7451 12H5.25488C5.04687 12 4.84738 11.9157 4.70029 11.7657C4.5532 11.6157 4.47057 11.4122 4.47057 11.2C4.47057 10.9878 4.5532 10.7843 4.70029 10.6343C4.84738 10.4843 5.04687 10.4 5.25488 10.4H10.7451C10.9531 10.4 11.1526 10.4843 11.2997 10.6343C11.4468 10.7843 11.5294 10.9878 11.5294 11.2C11.5294 11.4122 11.4468 11.6157 11.2997 11.7657C11.1526 11.9157 10.9531 12 10.7451 12ZM10.7451 8.8H5.25488C5.04687 8.8 4.84738 8.71571 4.70029 8.56569C4.5532 8.41566 4.47057 8.21217 4.47057 8C4.47057 7.78783 4.5532 7.58434 4.70029 7.43431C4.84738 7.28429 5.04687 7.2 5.25488 7.2H10.7451C10.9531 7.2 11.1526 7.28429 11.2997 7.43431C11.4468 7.58434 11.5294 7.78783 11.5294 8C11.5294 8.21217 11.4468 8.41566 11.2997 8.56569C11.1526 8.71571 10.9531 8.8 10.7451 8.8Z"
      fill="#9CA3AF" />
  </g>
</svg>
