<svg width="14" height="14" viewBox="0 0 14 14" fill="none" xmlns="http://www.w3.org/2000/svg">
<g id="cog" clip-path="url(#clip0_9977_1741)">
<path id="Vector" d="M13.2222 5.44444H12.6334L12.0836 4.11678L12.4997 3.69989C12.6455 3.55403 12.7274 3.35624 12.7274 3.15C12.7274 2.94376 12.6455 2.74597 12.4997 2.60011L11.3999 1.50033C11.254 1.35452 11.0562 1.27261 10.85 1.27261C10.6438 1.27261 10.446 1.35452 10.3001 1.50033L9.88322 1.91644L8.55556 1.36656V0.777778C8.55556 0.571498 8.47361 0.373667 8.32775 0.227806C8.18189 0.0819442 7.98406 0 7.77778 0H6.22222C6.01594 0 5.81811 0.0819442 5.67225 0.227806C5.52639 0.373667 5.44444 0.571498 5.44444 0.777778V1.36656L4.11678 1.91644L3.69989 1.50033C3.55403 1.35452 3.35624 1.27261 3.15 1.27261C2.94376 1.27261 2.74597 1.35452 2.60011 1.50033L1.50033 2.60011C1.35452 2.74597 1.27261 2.94376 1.27261 3.15C1.27261 3.35624 1.35452 3.55403 1.50033 3.69989L1.91722 4.11678L1.36656 5.44444H0.777778C0.571498 5.44444 0.373667 5.52639 0.227806 5.67225C0.0819442 5.81811 0 6.01594 0 6.22222V7.77778C0 7.98406 0.0819442 8.18189 0.227806 8.32775C0.373667 8.47361 0.571498 8.55556 0.777778 8.55556H1.36656C1.63178 9.19567 1.652 9.24311 1.91644 9.88322L1.50033 10.3001C1.35452 10.446 1.27261 10.6438 1.27261 10.85C1.27261 11.0562 1.35452 11.254 1.50033 11.3999L2.60011 12.4997C2.74597 12.6455 2.94376 12.7274 3.15 12.7274C3.35624 12.7274 3.55403 12.6455 3.69989 12.4997L4.11678 12.0836L5.44444 12.6334V13.2222C5.44444 13.4285 5.52639 13.6263 5.67225 13.7722C5.81811 13.9181 6.01594 14 6.22222 14H7.77778C7.98406 14 8.18189 13.9181 8.32775 13.7722C8.47361 13.6263 8.55556 13.4285 8.55556 13.2222V12.6334L9.88322 12.0828L10.3001 12.4997C10.446 12.6455 10.6438 12.7274 10.85 12.7274C11.0562 12.7274 11.254 12.6455 11.3999 12.4997L12.4997 11.3999C12.6455 11.254 12.7274 11.0562 12.7274 10.85C12.7274 10.6438 12.6455 10.446 12.4997 10.3001L12.0836 9.88322L12.6334 8.55556H13.2222C13.4285 8.55556 13.6263 8.47361 13.7722 8.32775C13.9181 8.18189 14 7.98406 14 7.77778V6.22222C14 6.01594 13.9181 5.81811 13.7722 5.67225C13.6263 5.52639 13.4285 5.44444 13.2222 5.44444ZM7 10.1111C6.38468 10.1111 5.78318 9.92865 5.27156 9.58679C4.75994 9.24494 4.36118 8.75905 4.12571 8.19057C3.89024 7.62209 3.82862 6.99655 3.94867 6.39305C4.06871 5.78956 4.36502 5.23521 4.80011 4.80011C5.23521 4.36502 5.78956 4.06871 6.39305 3.94867C6.99655 3.82862 7.62209 3.89024 8.19057 4.12571C8.75905 4.36118 9.24494 4.75994 9.58679 5.27156C9.92865 5.78318 10.1111 6.38468 10.1111 7C10.1111 7.82512 9.78333 8.61644 9.19989 9.19989C8.61644 9.78333 7.82512 10.1111 7 10.1111Z" fill="#9CA3AF"/>
</g>
<defs>
<clipPath id="clip0_9977_1741">
<rect width="14" height="14" fill="white"/>
</clipPath>
</defs>
</svg>
