<svg width="12" height="13" viewBox="0 0 12 13" fill="none" xmlns="http://www.w3.org/2000/svg">
  <g id="home" clip-path="url(#clip0_9994_1240)">
    <path id="Vector"
      d="M11.8314 6.07573L10.6299 4.87572L6.42472 0.675674C6.31207 0.56319 6.15929 0.5 6 0.5C5.84071 0.5 5.68793 0.56319 5.57528 0.675674L1.37011 4.87572L0.168634 6.07573C0.059205 6.18889 -0.00134602 6.34046 2.27095e-05 6.49778C0.00139144 6.6551 0.0645704 6.80559 0.175952 6.91683C0.287334 7.02808 0.438006 7.09118 0.595518 7.09255C0.75303 7.09391 0.904778 7.03344 1.01808 6.92414L1.19409 6.74834V11.3C1.19409 11.6182 1.32068 11.9235 1.546 12.1485C1.77132 12.3736 2.07692 12.5 2.39557 12.5H4.19779C4.35711 12.5 4.50991 12.4368 4.62257 12.3243C4.73523 12.2117 4.79852 12.0591 4.79852 11.9V9.49997C4.79852 9.34084 4.86182 9.18822 4.97448 9.0757C5.08714 8.96318 5.23994 8.89996 5.39926 8.89996H6.60074C6.76006 8.89996 6.91286 8.96318 7.02552 9.0757C7.13818 9.18822 7.20148 9.34084 7.20148 9.49997V11.9C7.20148 12.0591 7.26477 12.2117 7.37743 12.3243C7.49009 12.4368 7.64289 12.5 7.80221 12.5H9.60443C9.92308 12.5 10.2287 12.3736 10.454 12.1485C10.6793 11.9235 10.8059 11.6182 10.8059 11.3V6.74834L10.9819 6.92414C11.0952 7.03344 11.247 7.09391 11.4045 7.09255C11.562 7.09118 11.7127 7.02808 11.824 6.91683C11.9354 6.80559 11.9986 6.6551 12 6.49778C12.0013 6.34046 11.9408 6.18889 11.8314 6.07573Z"
      fill="#374151" />
  </g>
  <defs>
    <clipPath id="clip0_9994_1240">
      <rect width="12" height="12" fill="white" transform="translate(0 0.5)" />
    </clipPath>
  </defs>
</svg>
