<svg width="12" height="13" viewBox="0 0 12 13" fill="none" xmlns="http://www.w3.org/2000/svg">
  <g id="info" clip-path="url(#clip0_9960_6544)">
    <path id="Vector"
      d="M6.4778 2.63594L6.20002 3.05168L6.4778 2.63594C6.24757 2.48211 5.9769 2.4 5.7 2.4C5.3287 2.4 4.9726 2.5475 4.71005 2.81005C4.4475 3.0726 4.3 3.4287 4.3 3.8C4.3 4.07689 4.38211 4.34757 4.53594 4.5778C4.59053 4.6595 4.65329 4.7348 4.72297 4.8027C4.45938 4.82119 4.21024 4.93412 4.02219 5.12218C3.81589 5.32847 3.7 5.60826 3.7 5.9C3.7 6.19174 3.8159 6.47153 4.02218 6.67782C4.22847 6.88411 4.50826 7 4.8 7H4.9V7.8H4.8C4.50826 7.8 4.22847 7.91589 4.02218 8.12218C3.8159 8.32847 3.7 8.60826 3.7 8.9C3.7 9.19174 3.81589 9.47153 4.02218 9.67782C4.22848 9.88411 4.50826 10 4.8 10H7.2C7.49174 10 7.77153 9.88411 7.97782 9.67782C8.18411 9.47153 8.3 9.19174 8.3 8.9C8.3 8.60826 8.18411 8.32847 7.97782 8.12218C7.77153 7.91589 7.49174 7.8 7.2 7.8H7.1V5.9C7.1 5.60826 6.98411 5.32847 6.77782 5.12218C6.70189 5.04625 6.61599 4.98256 6.52321 4.9324C6.58218 4.88953 6.63796 4.84194 6.68995 4.78995C6.88575 4.59415 7.01908 4.3447 7.0731 4.07313L6.58271 3.97558L7.0731 4.07313C7.12712 3.80155 7.0994 3.52006 6.99343 3.26424L6.53149 3.45558L6.99343 3.26424C6.88747 3.00843 6.70803 2.78978 6.4778 2.63594ZM2.94437 1.92692C3.84876 1.32262 4.91203 1.00005 5.99973 1C7.45797 1.00167 8.85602 1.5817 9.88716 2.61284C10.9184 3.64405 11.4984 5.0422 11.5 6.50055C11.4999 7.58815 11.1773 8.65132 10.5731 9.55563C9.96874 10.4601 9.10975 11.1651 8.10476 11.5813C7.09977 11.9976 5.9939 12.1065 4.92701 11.8943C3.86011 11.6821 2.8801 11.1583 2.11092 10.3891C1.34173 9.6199 0.817902 8.63989 0.605684 7.57299C0.393465 6.5061 0.502383 5.40023 0.918665 4.39524C1.33495 3.39025 2.0399 2.53126 2.94437 1.92692Z"
      fill="#9CA3AF" stroke="#9CA3AF" />
  </g>
  <defs>
    <clipPath id="clip0_9960_6544">
      <rect width="12" height="12" fill="white" transform="translate(0 0.5)" />
    </clipPath>
  </defs>
</svg>
