<svg width="14" height="14" viewBox="0 0 14 14" fill="none" xmlns="http://www.w3.org/2000/svg">
<g id="life-buoy" clip-path="url(#clip0_9977_1745)">
<g id="Vector">
<path d="M3.77895 1.21544L6.17922 3.61569C6.47321 3.5436 6.77631 3.4946 7.0934 3.5009C7.3482 3.5079 7.59459 3.545 7.83259 3.6038L10.2217 1.21474C10.3169 1.11954 10.4247 1.04184 10.5373 0.973944C9.55106 0.390155 8.41218 0.0352621 7.1872 0.0016627C5.82572 -0.0277367 4.55244 0.334156 3.46256 0.974644C3.57596 1.04254 3.68375 1.12024 3.77895 1.21544Z" fill="#9CA3AF"/>
<path d="M11.7959 2.29342L11.707 2.20452C11.6174 2.11492 11.5138 2.10232 11.4592 2.10232C11.4046 2.10232 11.301 2.11562 11.2121 2.20452L9.15977 4.25758C9.18007 4.27368 9.19407 4.29538 9.21437 4.31148C9.38027 4.44868 9.53216 4.59778 9.67076 4.76297C9.69386 4.79027 9.72466 4.81057 9.74706 4.83857L11.7959 2.78971C11.9317 2.65181 11.9317 2.43062 11.7959 2.29342Z" fill="#9CA3AF"/>
<path d="M9.74356 9.16029C9.72676 9.18129 9.70366 9.19669 9.68686 9.21769C9.55246 9.38009 9.40547 9.52918 9.24447 9.66498C9.21507 9.69018 9.19337 9.72308 9.16327 9.74688L11.2121 11.7957C11.3017 11.8853 11.4053 11.8979 11.4599 11.8979C11.5145 11.8979 11.6181 11.8846 11.7077 11.7957L11.7966 11.7068C11.8862 11.6172 11.8988 11.5136 11.8988 11.459C11.8988 11.4044 11.8855 11.3009 11.7966 11.2113L9.74356 9.16029Z" fill="#9CA3AF"/>
<path d="M8.73418 5.82625C8.49898 5.48466 8.16299 5.21236 7.76539 5.05487C7.76259 5.05347 7.76049 5.05137 7.75699 5.05067C7.5379 4.96527 7.3041 4.90787 7.0556 4.90157C7.0381 4.90017 7.0185 4.90017 7.0003 4.90017C6.72381 4.90017 6.45991 4.95547 6.21701 5.05417C5.69132 5.26556 5.26853 5.69466 5.05503 6.23504C5.05363 6.23924 5.05083 6.24205 5.04873 6.24625C4.96403 6.46464 4.90734 6.69774 4.90104 6.94483C4.89334 7.24303 4.95004 7.52792 5.05573 7.78832C5.10683 7.91361 5.16843 8.03401 5.24263 8.14601C5.24893 8.15581 5.25803 8.16421 5.26503 8.17471C5.50023 8.517 5.83622 8.7893 6.23452 8.94679C6.23732 8.94819 6.23941 8.95029 6.24221 8.95099C6.46131 9.03639 6.69511 9.09379 6.9436 9.10079C7.2264 9.11199 7.4987 9.06229 7.74859 8.96639C7.75629 8.96289 7.76329 8.95729 7.77099 8.95379C8.30228 8.7438 8.72928 8.31121 8.94487 7.76732C8.94557 7.76592 8.94697 7.76452 8.94697 7.76312C9.03377 7.54262 9.09187 7.30743 9.09817 7.05823C9.10587 6.76074 9.04987 6.47724 8.94487 6.21755C8.89377 6.09085 8.83078 5.97045 8.75658 5.85705C8.75028 5.84515 8.74118 5.83605 8.73418 5.82625Z" fill="#9CA3AF"/>
<path d="M13.03 3.4652C12.96 3.5765 12.8809 3.68289 12.7857 3.77809L10.3876 6.17625C10.4597 6.47164 10.5079 6.77544 10.4995 7.09323C10.4925 7.34802 10.4548 7.59442 10.396 7.83172L12.785 10.2208C12.8802 10.316 12.9593 10.4217 13.0279 10.5316C13.6103 9.54668 13.9645 8.4099 13.9974 7.18703V7.18633C14.0345 5.83045 13.6733 4.55648 13.03 3.4652Z" fill="#9CA3AF"/>
<path d="M10.2217 12.7848L7.82699 10.3902C7.56029 10.4553 7.2866 10.5001 7.001 10.5001C6.9695 10.5001 6.938 10.5001 6.9065 10.4994C6.65171 10.4924 6.40531 10.4553 6.16732 10.3965L3.77825 12.7855C3.68375 12.88 3.57806 12.9591 3.46676 13.0291C4.45234 13.6115 5.58913 13.9657 6.81271 13.9986C6.87641 13.9993 6.9394 14 7.0024 14C8.28828 14 9.49297 13.6416 10.5332 13.0284C10.4219 12.9584 10.3162 12.8793 10.2217 12.7848Z" fill="#9CA3AF"/>
<path d="M1.21489 10.2222L3.61305 7.82402C3.54096 7.52862 3.49266 7.22483 3.50106 6.90703C3.50806 6.65224 3.54516 6.40584 3.60396 6.16785L1.21489 3.77809C1.11899 3.68219 1.03989 3.5758 0.970596 3.4652C0.388904 4.45008 0.0354099 5.58686 0.00251045 6.81253C-0.033889 8.16911 0.327305 9.44308 0.970596 10.5351C1.04059 10.4238 1.11969 10.3174 1.21489 10.2222Z" fill="#9CA3AF"/>
<path d="M4.78554 9.68948C4.61964 9.55228 4.46774 9.40319 4.32914 9.23799C4.30604 9.21069 4.27524 9.19039 4.25285 9.16239L2.20398 11.2113C2.06818 11.3477 2.06818 11.5696 2.20398 11.7061L2.29288 11.795C2.38247 11.8846 2.48607 11.8972 2.54067 11.8972C2.59527 11.8972 2.69887 11.8839 2.78777 11.795L4.84014 9.74198C4.81984 9.72728 4.80584 9.70558 4.78554 9.68948Z" fill="#9CA3AF"/>
<path d="M4.25705 4.83997C4.27735 4.81407 4.30534 4.79587 4.32564 4.77067C4.45514 4.61668 4.59374 4.47388 4.74774 4.34438C4.77994 4.31638 4.80444 4.27998 4.83734 4.25408L2.78847 2.20452C2.69887 2.11492 2.59527 2.10232 2.54137 2.10232C2.48747 2.10232 2.38317 2.11492 2.29358 2.20452L2.20468 2.29342C2.11508 2.38302 2.10248 2.48732 2.10248 2.54122C2.10248 2.59511 2.11578 2.69941 2.20468 2.78901L4.25705 4.83997Z" fill="#9CA3AF"/>
</g>
</g>
<defs>
<clipPath id="clip0_9977_1745">
<rect width="14" height="14" fill="white"/>
</clipPath>
</defs>
</svg>
