<svg width="16" height="16" viewBox="0 0 16 16" fill="none" xmlns="http://www.w3.org/2000/svg">
  <g id="map-pin">
    <path id="Vector"
      d="M8.0001 3.0505e-06C6.78465 -0.00113653 5.59205 0.317031 4.5515 0.920036C3.51095 1.52304 2.66213 2.38789 2.09701 3.42088C1.53188 4.45388 1.272 5.61563 1.34551 6.78028C1.41902 7.94493 1.82312 9.06806 2.51404 10.028C2.54169 10.0802 2.57523 10.1293 2.61404 10.1744L2.71404 10.2912C2.80738 10.4072 2.90322 10.5192 2.98572 10.6112L7.35674 15.7104C7.43511 15.8012 7.53343 15.8743 7.64465 15.9243C7.75588 15.9744 7.87726 16.0002 8.0001 16C8.12328 16.0001 8.24495 15.9739 8.35634 15.9234C8.46773 15.8729 8.56607 15.7993 8.64429 15.708L12.8878 10.744C13.0597 10.5666 13.2205 10.3796 13.3695 10.184L13.4753 10.06C13.5156 10.013 13.5498 9.96141 13.577 9.9064C14.2356 8.94108 14.61 7.82278 14.6607 6.66989C14.7114 5.51699 14.4365 4.37239 13.865 3.35723C13.2935 2.34206 12.4467 1.49411 11.4143 0.903113C10.3818 0.312119 9.20215 7.25263e-05 8.0001 3.0505e-06ZM8.0001 4C8.49457 4 8.97794 4.14076 9.38908 4.40447C9.80022 4.66819 10.1207 5.04302 10.3099 5.48156C10.4991 5.9201 10.5486 6.40266 10.4522 6.86822C10.3557 7.33377 10.1176 7.76141 9.76794 8.09706C9.4183 8.4327 8.97282 8.66128 8.48785 8.75389C8.00287 8.84649 7.50019 8.79896 7.04335 8.61731C6.58652 8.43566 6.19605 8.12805 5.92134 7.73337C5.64662 7.33869 5.49999 6.87468 5.49999 6.4C5.49999 5.76348 5.7634 5.15303 6.23226 4.70295C6.70112 4.25286 7.33703 4 8.0001 4Z"
      fill="#9CA3AF" />
  </g>
</svg>
