<svg width="16" height="16" viewBox="0 0 16 16" fill="none" xmlns="http://www.w3.org/2000/svg">
  <g id="map-pin-alt">
    <path id="Vector"
      d="M8.00002 0C6.58083 0.010846 5.21786 0.551899 4.18271 1.51534C3.14756 2.47879 2.51623 3.79388 2.41454 5.19857C2.31285 6.60326 2.74825 7.99439 3.63399 9.09477C4.51972 10.1951 5.79076 10.924 7.19382 11.136V15.2C7.19382 15.4122 7.27876 15.6157 7.42995 15.7657C7.58114 15.9157 7.78621 16 8.00002 16C8.21384 16 8.41891 15.9157 8.5701 15.7657C8.72129 15.6157 8.80623 15.4122 8.80623 15.2V11.136C10.2093 10.924 11.4803 10.1951 12.3661 9.09477C13.2518 7.99439 13.6872 6.60326 13.5855 5.19857C13.4838 3.79388 12.8525 2.47879 11.8173 1.51534C10.7822 0.551899 9.41922 0.010846 8.00002 0ZM8.00002 4.4C7.6793 4.4 7.3717 4.52643 7.14491 4.75147C6.91812 4.97652 6.79071 5.28174 6.79071 5.6C6.79071 5.81217 6.70577 6.01566 6.55458 6.16569C6.40339 6.31571 6.19833 6.4 5.98451 6.4C5.77069 6.4 5.56562 6.31571 5.41443 6.16569C5.26324 6.01566 5.1783 5.81217 5.1783 5.6C5.1783 4.85739 5.47559 4.1452 6.00476 3.6201C6.53394 3.095 7.25166 2.8 8.00002 2.8C8.21384 2.8 8.41891 2.88429 8.5701 3.03431C8.72129 3.18434 8.80623 3.38783 8.80623 3.6C8.80623 3.81217 8.72129 4.01566 8.5701 4.16569C8.41891 4.31571 8.21384 4.4 8.00002 4.4Z"
      fill="#9CA3AF" />
  </g>
</svg>
