<svg width="16" height="16" viewBox="0 0 16 16" fill="none" xmlns="http://www.w3.org/2000/svg">
  <g id="palette" clip-path="url(#clip0_9983_1648)">
    <path id="Vector"
      d="M15.8535 6.48182C15.4649 4.46104 14.3105 2.66795 12.6309 1.4762C10.9514 0.284444 8.8761 -0.214041 6.8376 0.0846172C4.7991 0.383275 2.95462 1.45604 1.68851 3.07936C0.422403 4.70269 -0.167671 6.75135 0.0412508 8.79845C0.193531 10.1661 0.69326 11.4722 1.493 12.5928C2.29274 13.7134 3.36596 14.6112 4.61079 15.2011C5.65615 15.7164 6.80445 15.9895 7.97015 16H7.97975C8.29814 16.0013 8.61364 15.9396 8.90799 15.8184C9.20234 15.6972 9.46971 15.5189 9.69462 15.2938C9.91863 15.0729 10.0964 14.8096 10.2177 14.5194C10.3389 14.2293 10.4012 13.9179 10.4009 13.6035V12.9165C10.39 12.8035 10.4024 12.6895 10.4373 12.5815C10.4722 12.4735 10.5288 12.3738 10.6038 12.2885C10.6787 12.2032 10.7703 12.1341 10.873 12.0855C10.9756 12.0369 11.0872 12.0097 11.2007 12.0058H13.3603C13.8609 12.0089 14.3496 11.8543 14.7571 11.564C15.1647 11.2738 15.4702 10.8626 15.6303 10.3889C16.0305 9.12567 16.1072 7.78235 15.8535 6.48182ZM3.60218 8.81044C3.44398 8.81044 3.28934 8.76359 3.1578 8.67581C3.02627 8.58803 2.92375 8.46327 2.86321 8.3173C2.80267 8.17133 2.78683 8.01071 2.8177 7.85575C2.84856 7.70079 2.92474 7.55845 3.0366 7.44673C3.14846 7.33501 3.29098 7.25893 3.44613 7.22811C3.60129 7.19729 3.76211 7.21311 3.90826 7.27357C4.05442 7.33403 4.17934 7.43642 4.26723 7.56779C4.35511 7.69916 4.40202 7.8536 4.40202 8.0116C4.40202 8.22346 4.31776 8.42665 4.16775 8.57646C4.01775 8.72627 3.81431 8.81044 3.60218 8.81044ZM5.76737 5.78044C5.65552 5.89219 5.513 5.96829 5.35783 5.99914C5.20267 6.02998 5.04184 6.01417 4.89567 5.95372C4.7495 5.89326 4.62457 5.79087 4.53667 5.6595C4.44877 5.52813 4.40185 5.37367 4.40185 5.21567C4.40185 5.05766 4.44877 4.9032 4.53667 4.77183C4.62457 4.64046 4.7495 4.53807 4.89567 4.47761C5.04184 4.41716 5.20267 4.40135 5.35783 4.43219C5.513 4.46304 5.65552 4.53914 5.76737 4.65089C5.91731 4.80069 6.00155 5.00384 6.00155 5.21567C6.00155 5.42749 5.91731 5.63064 5.76737 5.78044ZM8.06453 4.48313C7.90634 4.48313 7.75169 4.43628 7.62016 4.3485C7.48863 4.26073 7.38611 4.13596 7.32557 3.99C7.26503 3.84403 7.24919 3.68341 7.28005 3.52845C7.31091 3.37349 7.38709 3.23115 7.49895 3.11943C7.61081 3.00771 7.75333 2.93163 7.90849 2.9008C8.06364 2.86998 8.22447 2.8858 8.37062 2.94626C8.51677 3.00673 8.64169 3.10911 8.72958 3.24048C8.81747 3.37185 8.86438 3.5263 8.86438 3.68429C8.86438 3.89616 8.78011 4.09935 8.63011 4.24916C8.48011 4.39897 8.27666 4.48313 8.06453 4.48313ZM11.3663 5.78044C11.2545 5.89219 11.1119 5.96829 10.9568 5.99914C10.8016 6.02998 10.6408 6.01417 10.4946 5.95372C10.3484 5.89326 10.2235 5.79087 10.1356 5.6595C10.0477 5.52813 10.0008 5.37367 10.0008 5.21567C10.0008 5.05766 10.0477 4.9032 10.1356 4.77183C10.2235 4.64046 10.3484 4.53807 10.4946 4.47761C10.6408 4.41716 10.8016 4.40135 10.9568 4.43219C11.1119 4.46304 11.2545 4.53914 11.3663 4.65089C11.5163 4.80069 11.6005 5.00384 11.6005 5.21567C11.6005 5.42749 11.5163 5.63064 11.3663 5.78044Z"
      fill="#1F2A37" />
  </g>
  <defs>
    <clipPath id="clip0_9983_1648">
      <rect width="16" height="16" fill="white" />
    </clipPath>
  </defs>
</svg>
