<svg width="16" height="16" viewBox="0 0 16 16" fill="none" xmlns="http://www.w3.org/2000/svg">
  <g id="rectangle-list">
    <path id="Vector"
      d="M14.4 1.33301H1.6C0.7176 1.33301 0 2.08051 0 2.99967V12.9997C0 13.9188 0.7176 14.6663 1.6 14.6663H14.4C15.2824 14.6663 16 13.9188 16 12.9997V2.99967C16 2.08051 15.2824 1.33301 14.4 1.33301ZM4 11.333C3.5584 11.333 3.2 10.9597 3.2 10.4997C3.2 10.0397 3.5584 9.66634 4 9.66634C4.4416 9.66634 4.8 10.0397 4.8 10.4997C4.8 10.9597 4.4416 11.333 4 11.333ZM4 8.83301C3.5584 8.83301 3.2 8.45967 3.2 7.99967C3.2 7.53967 3.5584 7.16634 4 7.16634C4.4416 7.16634 4.8 7.53967 4.8 7.99967C4.8 8.45967 4.4416 8.83301 4 8.83301ZM4 6.33301C3.5584 6.33301 3.2 5.95967 3.2 5.49967C3.2 5.03967 3.5584 4.66634 4 4.66634C4.4416 4.66634 4.8 5.03967 4.8 5.49967C4.8 5.95967 4.4416 6.33301 4 6.33301ZM12 11.333H7.2C6.7576 11.333 6.4 10.9597 6.4 10.4997C6.4 10.0397 6.7576 9.66634 7.2 9.66634H12C12.4424 9.66634 12.8 10.0397 12.8 10.4997C12.8 10.9597 12.4424 11.333 12 11.333ZM12 8.83301H7.2C6.7576 8.83301 6.4 8.45967 6.4 7.99967C6.4 7.53967 6.7576 7.16634 7.2 7.16634H12C12.4424 7.16634 12.8 7.53967 12.8 7.99967C12.8 8.45967 12.4424 8.83301 12 8.83301ZM12 6.33301H7.2C6.7576 6.33301 6.4 5.95967 6.4 5.49967C6.4 5.03967 6.7576 4.66634 7.2 4.66634H12C12.4424 4.66634 12.8 5.03967 12.8 5.49967C12.8 5.95967 12.4424 6.33301 12 6.33301Z"
      fill="#9CA3AF" />
  </g>
</svg>
