<svg xmlns="http://www.w3.org/2000/svg" width="20" height="21" viewBox="0 0 20 21" fill="none">
  <g clip-path="url(#clip0_152_9390)">
    <path d="M8.0001 16.5C6.41783 16.5 4.87109 16.0308 3.55548 15.1518C2.23987 14.2727 1.21448 13.0233 0.608974 11.5615C0.00346629 10.0997 -0.154962 8.49112 0.153723 6.93928C0.462409 5.38743 1.22434 3.96197 2.34318 2.84315C3.46201 1.72433 4.88749 0.962403 6.43936 0.653721C7.99122 0.34504 9.59977 0.503466 11.0616 1.10897C12.5234 1.71447 13.7729 2.73985 14.6519 4.05544C15.531 5.37103 16.0002 6.91775 16.0002 8.5C15.9978 10.621 15.1542 12.6544 13.6544 14.1542C12.1546 15.654 10.1211 16.4976 8.0001 16.5ZM8.0001 2.5C6.8134 2.5 5.65334 2.8519 4.66664 3.51118C3.67993 4.17047 2.91089 5.10754 2.45675 6.2039C2.00262 7.30026 1.8838 8.50665 2.11532 9.67054C2.34683 10.8344 2.91828 11.9035 3.75741 12.7426C4.59653 13.5818 5.66564 14.1532 6.82954 14.3847C7.99344 14.6162 9.19985 14.4974 10.2962 14.0433C11.3926 13.5891 12.3297 12.8201 12.989 11.8334C13.6483 10.8467 14.0002 9.68669 14.0002 8.5C13.9986 6.90919 13.3659 5.38399 12.241 4.25912C11.1161 3.13424 9.59093 2.50159 8.0001 2.5Z" fill="#6B7280"/>
    <path d="M19.0002 20.5C18.735 20.4999 18.4807 20.3946 18.2932 20.207L14.2931 16.207C14.111 16.0184 14.0102 15.7658 14.0125 15.5036C14.0147 15.2414 14.1199 14.9906 14.3053 14.8052C14.4907 14.6198 14.7416 14.5146 15.0038 14.5123C15.266 14.51 15.5186 14.6108 15.7072 14.793L19.7072 18.793C19.847 18.9329 19.9422 19.111 19.9808 19.305C20.0194 19.4989 19.9996 19.7 19.9239 19.8827C19.8482 20.0654 19.7201 20.2215 19.5557 20.3314C19.3913 20.4413 19.198 20.5 19.0002 20.5Z" fill="#6B7280"/>
  </g>
  <defs>
    <clipPath id="clip0_152_9390">
      <rect width="20" height="20" fill="white" transform="translate(0 0.5)"/>
    </clipPath>
  </defs>
</svg>
