<svg width="16" height="16" viewBox="0 0 16 16" fill="none" xmlns="http://www.w3.org/2000/svg">
  <g id="swatchbook" clip-path="url(#clip0_9977_1675)">
    <g id="Vector">
      <path
        d="M15.1111 9.77778H12.6916L7.11111 15.3582C6.86762 15.5995 6.59948 15.8146 6.31111 16H15.1111C15.3469 16 15.573 15.9064 15.7397 15.7397C15.9064 15.573 16 15.3469 16 15.1111V10.6667C16 10.4309 15.9064 10.2048 15.7397 10.0381C15.573 9.87143 15.3469 9.77778 15.1111 9.77778Z"
        fill="#9CA3AF" />
      <path
        d="M5.33333 0H0.888889C0.653141 0 0.427048 0.0936505 0.260349 0.260349C0.0936505 0.427048 0 0.653141 0 0.888889V12.8889C1.73881e-08 13.714 0.327777 14.5053 0.911224 15.0888C1.49467 15.6722 2.28599 16 3.11111 16C3.93623 16 4.72755 15.6722 5.311 15.0888C5.89445 14.5053 6.22222 13.714 6.22222 12.8889V0.888889C6.22222 0.653141 6.12857 0.427048 5.96187 0.260349C5.79517 0.0936505 5.56908 0 5.33333 0ZM3.11111 13.7778C2.93531 13.7778 2.76345 13.7256 2.61727 13.628C2.47109 13.5303 2.35716 13.3915 2.28988 13.2291C2.22261 13.0666 2.205 12.8879 2.2393 12.7155C2.2736 12.543 2.35826 12.3847 2.48257 12.2603C2.60689 12.136 2.76527 12.0514 2.9377 12.0171C3.11013 11.9828 3.28885 12.0004 3.45127 12.0677C3.6137 12.1349 3.75252 12.2489 3.8502 12.395C3.94787 12.5412 4 12.7131 4 12.8889C4 13.1246 3.90635 13.3507 3.73965 13.5174C3.57295 13.6841 3.34686 13.7778 3.11111 13.7778Z"
        fill="#9CA3AF" />
      <path
        d="M14.3396 4.35556L11.2 1.216C11.0333 1.04936 10.8073 0.955745 10.5716 0.955745C10.3359 0.955745 10.1098 1.04936 9.94311 1.216L8 3.15556V11.9556L14.3396 5.616C14.4226 5.5334 14.4885 5.4352 14.5335 5.32704C14.5784 5.21889 14.6016 5.10291 14.6016 4.98578C14.6016 4.86865 14.5784 4.75267 14.5335 4.64451C14.4885 4.53636 14.4226 4.43816 14.3396 4.35556Z"
        fill="#9CA3AF" />
    </g>
  </g>
  <defs>
    <clipPath id="clip0_9977_1675">
      <rect width="16" height="16" fill="white" />
    </clipPath>
  </defs>
</svg>
